<?xml version="1.0" encoding="utf-8"?>
<!-- Generator: Adobe Illustrator 15.1.0, SVG Export Plug-In . SVG Version: 6.00 Build 0)  -->
<!DOCTYPE svg PUBLIC "-//W3C//DTD SVG 1.0//EN" "http://www.w3.org/TR/2001/REC-SVG-20010904/DTD/svg10.dtd">
<svg version="1.0" id="Layer_1" xmlns="http://www.w3.org/2000/svg" xmlns:xlink="http://www.w3.org/1999/xlink" x="0px" y="0px"
	 width="759.936px" height="235.165px" viewBox="0 0 759.936 235.165" enable-background="new 0 0 759.936 235.165"
	 xml:space="preserve">
<g>
	<g>
		<path fill="#FFFFFF" stroke="#FFFFFF" stroke-miterlimit="10" d="M223.057,143.274c-5.953,17.091-23.646,28.229-39.479,34.604
			c-10.838,4.365-22.697,6.871-34.667,7.744c-10.898,0.795-22.024,0.649-32.136-3.938c-14.709-6.684-17.889-24.02-18.605-38.45
			c-0.76-15.261-0.13-30.738,0.056-46.021c0.174-14.466,1.094-28.906,2.011-43.339c0.39-6.102,0.787-12.203,1.188-18.305
			c0.311-4.715,0.242-9.594,1.291-14.227c0.446-1.969,1.211-3.854,2.188-5.611c0.797-1.434-0.768,1.125,0.159-0.214
			c0.271-0.393,0.569-0.765,0.87-1.136c0.299-0.371,0.625-0.719,0.948-1.064c1.538-1.646-0.904,0.709,0.188-0.213
			c0.655-0.556,3.599-2.431,0.64-0.619c0.857-0.525,4.271-2.043,0.52-0.399c0.479-0.21,0.974-0.396,1.462-0.579
			c2.06-0.771-3.124,0.96-0.993,0.318c0.529-0.16,1.063-0.295,1.604-0.43c2.002-0.506-3.423,0.635-0.333,0.086
			c0.907-0.16,5.117-0.57,1.263-0.234c1.252-0.109,2.511-0.152,3.77-0.178c0.647-0.014,1.3-0.004,1.946,0.002
			c2.316,0.025-2.225-0.109,0.125,0.009c1.609,0.081,3.221,0.237,4.819,0.418c6.796,0.767,10.373,1.682,17.221,3.81
			c6.729,2.092,13.27,4.794,19.605,7.863c21.497,10.409,41.63,26.75,54.578,46.966C227.41,92.19,231.22,118.329,223.057,143.274
			c-2.037,6.227,20.814,3.143,23.007-3.555c10.382-31.732,1.935-63.439-18.987-88.729C208.32,28.322,180.872,11.37,152.52,3.767
			c-12.729-3.416-26.266-4.988-39.336-2.671C100.989,3.258,87.95,8.367,81.659,19.707c-3.359,6.056-2.869,13.671-3.307,20.31
			c-0.743,11.334-1.493,22.666-2.158,34.004c-0.753,12.821-1.178,25.631-1.215,38.476c-0.047,16.021-1.399,32.587,1.16,48.46
			c2.755,17.062,13.356,29.268,30.217,33.621c13.286,3.432,27.487,2.812,41.011,1.373c14.354-1.527,28.411-4.896,41.973-9.832
			c20.062-7.305,41.327-19.524,52.771-38.187c1.604-2.613,2.947-5.313,3.958-8.22C248.183,133.638,225.387,136.588,223.057,143.274z
			"/>
	</g>
</g>
<g>
	<g>
		<path fill="#FFFFFF" stroke="#FFFFFF" stroke-miterlimit="10" d="M264.426,73.757c-3.306,2.791-6.759,5.267-10.554,7.356
			c-2.851,1.57-13.262,7.726-15.418,3.119c-1.246-2.658-1.778-5.908-2.241-8.775c-0.001-0.008-0.388-3.602-0.485-2.992
			c0.071-0.45-0.462,0.284,0.109-0.145c-0.375,0.278,1.021-0.414,1.479-0.558c6.458-2.016,13.505-2.646,20.24-2.642
			C260.136,69.125,269.25,69.534,264.426,73.757c-3.964,3.472,5.642,2.543,7.555,0.868c2.058-1.799,5.062-4.543,2.805-7.303
			c-2.144-2.611-7.682-2.614-10.679-2.736c-10.348-0.42-21.619,0.857-31.341,4.551c-2.354,0.895-6.831,2.688-6.688,5.811
			c0.179,3.865,1.159,11.091,4.189,13.988c5.066,4.846,17.562-0.656,22.567-2.643c6.993-2.77,13.41-6.829,19.143-11.668
			C275.993,71.237,266.362,72.123,264.426,73.757z"/>
	</g>
</g>
<ellipse fill="#FFFFFF" stroke="#FFFFFF" stroke-width="2" stroke-miterlimit="10" cx="169.27" cy="57.059" rx="5.464" ry="6.418"/>
<g>
	<g>
		<path fill="#FFFFFF" stroke="#FFFFFF" stroke-miterlimit="10" d="M235.479,120.718c-18.964,8.456-38.101,16.665-57.56,23.918
			c-9.718,3.622-20.778,6.315-31.237,8.977c-17.969,4.565-36.128,7.627-54.603,9.237c-3.229,0.281-8.032,2.221-8.603,5.93
			c-0.578,3.772,4.268,4.744,6.993,4.508c30.688-2.679,62.141-8.812,91.176-19.355c20.478-7.438,40.547-16.104,60.438-24.977
			c2.51-1.119,6.168-4.447,3.803-7.398C243.521,118.594,238.449,119.395,235.479,120.718L235.479,120.718z"/>
	</g>
</g>
<g>
	<g>
		<g>
			<path fill="#FFFFFF" stroke="#FFFFFF" stroke-miterlimit="10" d="M82.43,166.831c-20.339,6.479-40.677,12.959-61.015,19.438
				c-2.527,0.81-11.508,3.416-10.356,7.706c1.106,4.134,10.312,2.297,12.822,1.495c20.339-6.479,40.677-12.962,61.015-19.438
				c2.527-0.808,11.508-3.416,10.356-7.705C94.146,164.189,84.945,166.028,82.43,166.831L82.43,166.831z"/>
		</g>
	</g>
	<g>
		<g>
			<path fill="#FFFFFF" stroke="#FFFFFF" stroke-miterlimit="10" d="M11.059,193.974c4.774,11.909,9.552,23.817,14.327,35.729
				c2.822,7.043,25.616-0.143,23.183-6.211c-4.773-11.91-9.552-23.818-14.324-35.729C31.417,180.72,8.623,187.902,11.059,193.974
				L11.059,193.974z"/>
		</g>
	</g>
	<g>
		<g>
			<path fill="#FFFFFF" stroke="#FFFFFF" stroke-miterlimit="10" d="M81.8,175.918c-18.101,16.026-36.199,32.06-54.301,48.09
				c-3.923,3.474-2.117,8.289,2.562,9.568c5.713,1.56,12.084-0.578,16.395-4.396c18.103-16.027,36.198-32.061,54.301-48.092
				c3.925-3.474,2.117-8.289-2.562-9.566C92.479,169.965,86.108,172.101,81.8,175.918L81.8,175.918z"/>
		</g>
	</g>
</g>
<g enable-background="new    ">
	<path fill="#FFFFFF" d="M299.472,58.608c1.333,0,2.6,0.228,3.8,0.68c1.2,0.454,2.24,1.067,3.12,1.84
		c0.88,0.774,1.586,1.681,2.12,2.721c0.532,1.04,0.8,2.147,0.8,3.319c0,1.174-0.268,2.28-0.8,3.32c-0.534,1.04-1.24,1.947-2.12,2.72
		c-0.88,0.774-1.92,1.388-3.12,1.84c-1.2,0.454-2.467,0.681-3.8,0.681c-1.334,0-2.587-0.227-3.76-0.681
		c-1.174-0.452-2.2-1.065-3.08-1.84c-0.88-0.772-1.587-1.68-2.12-2.72c-0.534-1.04-0.8-2.146-0.8-3.32
		c0-1.172,0.267-2.279,0.8-3.319c0.532-1.04,1.24-1.946,2.12-2.721c0.88-0.772,1.906-1.386,3.08-1.84
		C296.885,58.835,298.138,58.608,299.472,58.608z M291.152,105.728l12-4.88h4.96v87.68h-16.96V105.728z"/>
	<path fill="#FFFFFF" d="M414.191,107.087v7.12h-16.319c1.706,2.348,3.066,4.974,4.08,7.88c1.013,2.908,1.521,5.801,1.521,8.681
		c0,4.479-0.988,8.547-2.961,12.2s-4.72,6.8-8.24,9.439c-3.52,2.64-7.719,4.68-12.6,6.12c-4.88,1.44-10.253,2.16-16.12,2.16
		c-2.134,0-4.334-0.187-6.6-0.561c-2.268-0.372-4.228-0.826-5.88-1.359c-1.654,1.334-3.04,2.88-4.16,4.64s-1.68,3.548-1.68,5.36
		c0,1.707,0.946,3.094,2.84,4.16c1.893,1.067,4.546,1.653,7.96,1.76l31.84,1.359c5.066,0.214,9.292,0.814,12.681,1.801
		c3.386,0.987,6.092,2.293,8.119,3.92c2.026,1.627,3.453,3.587,4.28,5.88c0.826,2.292,1.239,4.826,1.239,7.6
		c0,5.013-1.159,9.547-3.479,13.601c-2.319,4.052-5.68,7.506-10.079,10.359c-4.4,2.853-9.748,5.053-16.041,6.601
		c-6.293,1.546-13.414,2.319-21.36,2.319c-14.188,0-24.787-1.6-31.8-4.8c-7.014-3.2-10.52-7.439-10.52-12.72
		c0-2.348,0.586-4.614,1.76-6.8c1.173-2.188,2.68-4.28,4.52-6.28c1.84-2,3.88-3.92,6.12-5.76c2.24-1.84,4.453-3.612,6.64-5.32
		c-1.6-0.479-3.08-1.066-4.44-1.76c-1.36-0.692-2.534-1.48-3.52-2.36c-0.988-0.88-1.774-1.84-2.36-2.88
		c-0.588-1.04-0.88-2.173-0.88-3.4c0-1.76,0.453-3.56,1.36-5.399c0.906-1.84,2.16-3.612,3.76-5.32c1.6-1.706,3.453-3.266,5.56-4.68
		c2.106-1.413,4.36-2.572,6.76-3.48c-5.813-2.452-10.347-5.88-13.6-10.279c-3.254-4.4-4.88-9.453-4.88-15.16
		c0-4.213,0.973-8.2,2.92-11.96c1.946-3.76,4.612-7.04,8-9.84c3.386-2.801,7.386-5.013,12-6.641c4.612-1.626,9.56-2.439,14.84-2.439
		c2.56,0,5.092,0.174,7.6,0.52c2.506,0.348,4.84,0.8,7,1.36c2.16,0.56,4.08,1.214,5.76,1.96c1.68,0.747,2.973,1.547,3.88,2.399
		H414.191z M345.231,187.808c-1.28,0.96-2.4,2.026-3.36,3.2c-0.96,1.172-1.774,2.412-2.44,3.72c-0.667,1.306-1.174,2.612-1.52,3.92
		c-0.348,1.306-0.52,2.546-0.52,3.72c0,1.92,0.68,3.76,2.04,5.521c1.36,1.76,3.386,3.306,6.08,4.64c2.692,1.332,6.066,2.4,10.12,3.2
		c4.052,0.8,8.772,1.2,14.16,1.2c5.707,0,10.826-0.454,15.36-1.36c4.532-0.907,8.372-2.107,11.52-3.6c3.146-1.494,5.547-3.16,7.2-5
		c1.652-1.841,2.479-3.694,2.479-5.561c0-3.84-1.906-6.64-5.719-8.399c-3.814-1.761-9.028-2.641-15.641-2.641
		c-4.107,0-8.268-0.094-12.48-0.28c-4.214-0.188-8.147-0.413-11.8-0.68c-3.653-0.268-6.854-0.548-9.6-0.84
		C348.364,188.275,346.404,188.022,345.231,187.808z M366.511,156.208c2.4,0,4.72-0.546,6.96-1.64c2.24-1.093,4.212-2.6,5.92-4.521
		c1.706-1.92,3.067-4.159,4.081-6.72c1.012-2.56,1.52-5.306,1.52-8.24c0-4.212-0.574-8.119-1.721-11.72
		c-1.146-3.6-2.707-6.732-4.679-9.399c-1.974-2.667-4.268-4.761-6.88-6.28c-2.614-1.521-5.387-2.28-8.32-2.28
		c-2.88,0-5.374,0.601-7.48,1.8c-2.107,1.2-3.84,2.84-5.2,4.92c-1.36,2.08-2.36,4.534-3,7.36c-0.64,2.827-0.96,5.867-0.96,9.12
		c0,3.894,0.48,7.52,1.44,10.88c0.96,3.36,2.307,6.28,4.04,8.76c1.733,2.48,3.812,4.428,6.24,5.84
		C360.898,155.501,363.577,156.208,366.511,156.208z"/>
	<path fill="#FFFFFF" d="M439.31,58.608c1.333,0,2.601,0.228,3.801,0.68c1.199,0.454,2.24,1.067,3.119,1.84
		c0.881,0.774,1.587,1.681,2.121,2.721c0.531,1.04,0.799,2.147,0.799,3.319c0,1.174-0.268,2.28-0.799,3.32
		c-0.534,1.04-1.24,1.947-2.121,2.72c-0.879,0.774-1.92,1.388-3.119,1.84c-1.2,0.454-2.468,0.681-3.801,0.681
		c-1.334,0-2.587-0.227-3.76-0.681c-1.174-0.452-2.199-1.065-3.08-1.84c-0.88-0.772-1.588-1.68-2.119-2.72
		c-0.534-1.04-0.801-2.146-0.801-3.32c0-1.172,0.267-2.279,0.801-3.319c0.531-1.04,1.239-1.946,2.119-2.721
		c0.881-0.772,1.906-1.386,3.08-1.84C436.723,58.835,437.976,58.608,439.31,58.608z M430.99,105.728l12-4.88h4.961v87.68H430.99
		V105.728z"/>
	<path fill="#FFFFFF" d="M468.75,63.408l12.08-4.8h4.96v60.08c1.387-2.4,3.213-4.68,5.48-6.84c2.266-2.16,4.732-4.053,7.399-5.681
		c2.667-1.626,5.44-2.92,8.32-3.88s5.652-1.439,8.319-1.439c5.013,0,9.613,1.014,13.801,3.04c4.186,2.027,7.8,4.773,10.84,8.239
		c3.04,3.468,5.412,7.521,7.119,12.16c1.707,4.641,2.561,9.601,2.561,14.88c0,4.748-0.574,9.294-1.72,13.641
		c-1.147,4.348-2.747,8.413-4.8,12.2c-2.055,3.787-4.548,7.239-7.48,10.359c-2.934,3.12-6.174,5.788-9.72,8
		c-3.548,2.214-7.36,3.934-11.44,5.16s-8.334,1.84-12.76,1.84c-6.348,0-12.348-0.827-18-2.479c-5.654-1.653-10.641-4.24-14.96-7.761
		V63.408z M485.79,174.448c1.066,1.067,2.24,2.12,3.52,3.16c1.28,1.04,2.693,1.987,4.24,2.84c1.547,0.854,3.28,1.548,5.2,2.08
		c1.92,0.534,4.08,0.8,6.479,0.8c4,0,7.627-0.96,10.881-2.88c3.252-1.92,6.039-4.6,8.359-8.04c2.32-3.439,4.12-7.52,5.4-12.24
		c1.279-4.72,1.92-9.88,1.92-15.479c0-4.267-0.654-8.267-1.96-12c-1.308-3.732-3.094-6.973-5.36-9.72
		c-2.268-2.747-4.934-4.921-8-6.521c-3.067-1.6-6.334-2.4-9.8-2.4c-1.92,0-3.907,0.268-5.96,0.801
		c-2.054,0.533-4.014,1.279-5.88,2.239c-1.868,0.96-3.587,2.08-5.16,3.36s-2.867,2.64-3.88,4.08V174.448z"/>
	<path fill="#FFFFFF" d="M574.749,58.608c1.333,0,2.601,0.228,3.801,0.68c1.199,0.454,2.24,1.067,3.119,1.84
		c0.881,0.774,1.587,1.681,2.121,2.721c0.531,1.04,0.799,2.147,0.799,3.319c0,1.174-0.268,2.28-0.799,3.32
		c-0.534,1.04-1.24,1.947-2.121,2.72c-0.879,0.774-1.92,1.388-3.119,1.84c-1.2,0.454-2.468,0.681-3.801,0.681
		c-1.334,0-2.587-0.227-3.76-0.681c-1.174-0.452-2.199-1.065-3.08-1.84c-0.88-0.772-1.588-1.68-2.119-2.72
		c-0.534-1.04-0.801-2.146-0.801-3.32c0-1.172,0.267-2.279,0.801-3.319c0.531-1.04,1.239-1.946,2.119-2.721
		c0.881-0.772,1.906-1.386,3.08-1.84C572.162,58.835,573.415,58.608,574.749,58.608z M566.429,105.728l12-4.88h4.961v87.68h-16.961
		V105.728z"/>
	<path fill="#FFFFFF" d="M604.19,102.608h16.96v16.24c1.652-2.4,3.439-4.692,5.359-6.88c1.921-2.187,3.921-4.106,6-5.761
		c2.08-1.652,4.227-2.96,6.44-3.92c2.213-0.96,4.466-1.439,6.761-1.439c1.865,0,3.6,0.279,5.199,0.84c1.6,0.56,3,1.308,4.2,2.24
		c1.2,0.934,2.146,2.027,2.84,3.279c0.692,1.254,1.04,2.574,1.04,3.96c0,2.774-0.867,4.868-2.6,6.28
		c-1.734,1.414-4.147,2.12-7.24,2.12c-1.92,0-3.453-0.2-4.6-0.6c-1.148-0.4-2.188-0.853-3.12-1.36
		c-0.935-0.506-1.88-0.96-2.841-1.36c-0.959-0.399-2.159-0.6-3.6-0.6c-1.119,0-2.254,0.334-3.4,1c-1.146,0.667-2.293,1.6-3.439,2.8
		c-1.147,1.2-2.308,2.614-3.48,4.24c-1.174,1.627-2.348,3.399-3.52,5.32v59.52h-16.96V102.608z"/>
	<path fill="#FFFFFF" d="M730.749,180.127c-1.974,1.601-4.107,3.028-6.399,4.28c-2.294,1.254-4.681,2.32-7.16,3.2
		c-2.48,0.88-4.987,1.56-7.521,2.04c-2.533,0.479-5,0.72-7.399,0.72c-5.067,0-9.8-1.174-14.2-3.52
		c-4.4-2.347-8.24-5.521-11.52-9.521c-3.281-4-5.868-8.64-7.761-13.92c-1.894-5.28-2.84-10.853-2.84-16.72
		c0-3.893,0.546-7.732,1.64-11.521c1.093-3.786,2.613-7.372,4.561-10.76c1.946-3.386,4.293-6.52,7.04-9.399
		c2.746-2.881,5.8-5.373,9.159-7.48c3.36-2.106,6.947-3.746,10.761-4.92c3.812-1.173,7.8-1.76,11.96-1.76s7.812,0.733,10.96,2.199
		c3.146,1.468,6.053,3.4,8.72,5.801v-45.36l11.92-4.88h5.04v131.76h-16.96V180.127z M730.749,129.888c0-3.36-0.627-6.44-1.88-9.24
		c-1.254-2.8-2.894-5.187-4.92-7.16c-2.027-1.973-4.32-3.506-6.88-4.6c-2.561-1.093-5.147-1.641-7.76-1.641
		c-3.414,0-6.601,0.854-9.561,2.561c-2.96,1.707-5.547,4.08-7.76,7.12c-2.214,3.04-3.96,6.68-5.24,10.92
		c-1.279,4.239-1.92,8.894-1.92,13.96c0,5.439,0.707,10.547,2.12,15.319c1.413,4.774,3.347,8.935,5.8,12.48
		c2.453,3.548,5.32,6.348,8.6,8.4c3.28,2.054,6.787,3.079,10.521,3.079c1.812,0,3.612-0.239,5.4-0.72
		c1.786-0.479,3.492-1.12,5.12-1.92c1.626-0.8,3.159-1.732,4.6-2.8c1.44-1.066,2.692-2.187,3.76-3.36V129.888z"/>
</g>
<g enable-background="new    ">
	<path fill="#FFFFFF" d="M299.472,58.608c1.333,0,2.6,0.228,3.8,0.68c1.2,0.454,2.24,1.067,3.12,1.84
		c0.88,0.774,1.586,1.681,2.12,2.721c0.532,1.04,0.8,2.147,0.8,3.319c0,1.174-0.268,2.28-0.8,3.32c-0.534,1.04-1.24,1.947-2.12,2.72
		c-0.88,0.774-1.92,1.388-3.12,1.84c-1.2,0.454-2.467,0.681-3.8,0.681c-1.334,0-2.587-0.227-3.76-0.681
		c-1.174-0.452-2.2-1.065-3.08-1.84c-0.88-0.772-1.587-1.68-2.12-2.72c-0.534-1.04-0.8-2.146-0.8-3.32
		c0-1.172,0.267-2.279,0.8-3.319c0.532-1.04,1.24-1.946,2.12-2.721c0.88-0.772,1.906-1.386,3.08-1.84
		C296.885,58.835,298.138,58.608,299.472,58.608z M291.152,105.728l12-4.88h4.96v87.68h-16.96V105.728z"/>
	<path fill="#FFFFFF" d="M414.191,107.087v7.12h-16.319c1.706,2.348,3.066,4.974,4.08,7.88c1.013,2.908,1.521,5.801,1.521,8.681
		c0,4.479-0.988,8.547-2.961,12.2s-4.72,6.8-8.24,9.439c-3.52,2.64-7.719,4.68-12.6,6.12c-4.88,1.44-10.253,2.16-16.12,2.16
		c-2.134,0-4.334-0.187-6.6-0.561c-2.268-0.372-4.228-0.826-5.88-1.359c-1.654,1.334-3.04,2.88-4.16,4.64s-1.68,3.548-1.68,5.36
		c0,1.707,0.946,3.094,2.84,4.16c1.893,1.067,4.546,1.653,7.96,1.76l31.84,1.359c5.066,0.214,9.292,0.814,12.681,1.801
		c3.386,0.987,6.092,2.293,8.119,3.92c2.026,1.627,3.453,3.587,4.28,5.88c0.826,2.292,1.239,4.826,1.239,7.6
		c0,5.013-1.159,9.547-3.479,13.601c-2.319,4.052-5.68,7.506-10.079,10.359c-4.4,2.853-9.748,5.053-16.041,6.601
		c-6.293,1.546-13.414,2.319-21.36,2.319c-14.188,0-24.787-1.6-31.8-4.8c-7.014-3.2-10.52-7.439-10.52-12.72
		c0-2.348,0.586-4.614,1.76-6.8c1.173-2.188,2.68-4.28,4.52-6.28c1.84-2,3.88-3.92,6.12-5.76c2.24-1.84,4.453-3.612,6.64-5.32
		c-1.6-0.479-3.08-1.066-4.44-1.76c-1.36-0.692-2.534-1.48-3.52-2.36c-0.988-0.88-1.774-1.84-2.36-2.88
		c-0.588-1.04-0.88-2.173-0.88-3.4c0-1.76,0.453-3.56,1.36-5.399c0.906-1.84,2.16-3.612,3.76-5.32c1.6-1.706,3.453-3.266,5.56-4.68
		c2.106-1.413,4.36-2.572,6.76-3.48c-5.813-2.452-10.347-5.88-13.6-10.279c-3.254-4.4-4.88-9.453-4.88-15.16
		c0-4.213,0.973-8.2,2.92-11.96c1.946-3.76,4.612-7.04,8-9.84c3.386-2.801,7.386-5.013,12-6.641c4.612-1.626,9.56-2.439,14.84-2.439
		c2.56,0,5.092,0.174,7.6,0.52c2.506,0.348,4.84,0.8,7,1.36c2.16,0.56,4.08,1.214,5.76,1.96c1.68,0.747,2.973,1.547,3.88,2.399
		H414.191z M345.231,187.808c-1.28,0.96-2.4,2.026-3.36,3.2c-0.96,1.172-1.774,2.412-2.44,3.72c-0.667,1.306-1.174,2.612-1.52,3.92
		c-0.348,1.306-0.52,2.546-0.52,3.72c0,1.92,0.68,3.76,2.04,5.521c1.36,1.76,3.386,3.306,6.08,4.64c2.692,1.332,6.066,2.4,10.12,3.2
		c4.052,0.8,8.772,1.2,14.16,1.2c5.707,0,10.826-0.454,15.36-1.36c4.532-0.907,8.372-2.107,11.52-3.6c3.146-1.494,5.547-3.16,7.2-5
		c1.652-1.841,2.479-3.694,2.479-5.561c0-3.84-1.906-6.64-5.719-8.399c-3.814-1.761-9.028-2.641-15.641-2.641
		c-4.107,0-8.268-0.094-12.48-0.28c-4.214-0.188-8.147-0.413-11.8-0.68c-3.653-0.268-6.854-0.548-9.6-0.84
		C348.364,188.275,346.404,188.022,345.231,187.808z M366.511,156.208c2.4,0,4.72-0.546,6.96-1.64c2.24-1.093,4.212-2.6,5.92-4.521
		c1.706-1.92,3.067-4.159,4.081-6.72c1.012-2.56,1.52-5.306,1.52-8.24c0-4.212-0.574-8.119-1.721-11.72
		c-1.146-3.6-2.707-6.732-4.679-9.399c-1.974-2.667-4.268-4.761-6.88-6.28c-2.614-1.521-5.387-2.28-8.32-2.28
		c-2.88,0-5.374,0.601-7.48,1.8c-2.107,1.2-3.84,2.84-5.2,4.92c-1.36,2.08-2.36,4.534-3,7.36c-0.64,2.827-0.96,5.867-0.96,9.12
		c0,3.894,0.48,7.52,1.44,10.88c0.96,3.36,2.307,6.28,4.04,8.76c1.733,2.48,3.812,4.428,6.24,5.84
		C360.898,155.501,363.577,156.208,366.511,156.208z"/>
	<path fill="#FFFFFF" d="M439.31,58.608c1.333,0,2.601,0.228,3.801,0.68c1.199,0.454,2.24,1.067,3.119,1.84
		c0.881,0.774,1.587,1.681,2.121,2.721c0.531,1.04,0.799,2.147,0.799,3.319c0,1.174-0.268,2.28-0.799,3.32
		c-0.534,1.04-1.24,1.947-2.121,2.72c-0.879,0.774-1.92,1.388-3.119,1.84c-1.2,0.454-2.468,0.681-3.801,0.681
		c-1.334,0-2.587-0.227-3.76-0.681c-1.174-0.452-2.199-1.065-3.08-1.84c-0.88-0.772-1.588-1.68-2.119-2.72
		c-0.534-1.04-0.801-2.146-0.801-3.32c0-1.172,0.267-2.279,0.801-3.319c0.531-1.04,1.239-1.946,2.119-2.721
		c0.881-0.772,1.906-1.386,3.08-1.84C436.723,58.835,437.976,58.608,439.31,58.608z M430.99,105.728l12-4.88h4.961v87.68H430.99
		V105.728z"/>
	<path fill="#FFFFFF" d="M468.75,63.408l12.08-4.8h4.96v60.08c1.387-2.4,3.213-4.68,5.48-6.84c2.266-2.16,4.732-4.053,7.399-5.681
		c2.667-1.626,5.44-2.92,8.32-3.88s5.652-1.439,8.319-1.439c5.013,0,9.613,1.014,13.801,3.04c4.186,2.027,7.8,4.773,10.84,8.239
		c3.04,3.468,5.412,7.521,7.119,12.16c1.707,4.641,2.561,9.601,2.561,14.88c0,4.748-0.574,9.294-1.72,13.641
		c-1.147,4.348-2.747,8.413-4.8,12.2c-2.055,3.787-4.548,7.239-7.48,10.359c-2.934,3.12-6.174,5.788-9.72,8
		c-3.548,2.214-7.36,3.934-11.44,5.16s-8.334,1.84-12.76,1.84c-6.348,0-12.348-0.827-18-2.479c-5.654-1.653-10.641-4.24-14.96-7.761
		V63.408z M485.79,174.448c1.066,1.067,2.24,2.12,3.52,3.16c1.28,1.04,2.693,1.987,4.24,2.84c1.547,0.854,3.28,1.548,5.2,2.08
		c1.92,0.534,4.08,0.8,6.479,0.8c4,0,7.627-0.96,10.881-2.88c3.252-1.92,6.039-4.6,8.359-8.04c2.32-3.439,4.12-7.52,5.4-12.24
		c1.279-4.72,1.92-9.88,1.92-15.479c0-4.267-0.654-8.267-1.96-12c-1.308-3.732-3.094-6.973-5.36-9.72
		c-2.268-2.747-4.934-4.921-8-6.521c-3.067-1.6-6.334-2.4-9.8-2.4c-1.92,0-3.907,0.268-5.96,0.801
		c-2.054,0.533-4.014,1.279-5.88,2.239c-1.868,0.96-3.587,2.08-5.16,3.36s-2.867,2.64-3.88,4.08V174.448z"/>
	<path fill="#FFFFFF" d="M574.749,58.608c1.333,0,2.601,0.228,3.801,0.68c1.199,0.454,2.24,1.067,3.119,1.84
		c0.881,0.774,1.587,1.681,2.121,2.721c0.531,1.04,0.799,2.147,0.799,3.319c0,1.174-0.268,2.28-0.799,3.32
		c-0.534,1.04-1.24,1.947-2.121,2.72c-0.879,0.774-1.92,1.388-3.119,1.84c-1.2,0.454-2.468,0.681-3.801,0.681
		c-1.334,0-2.587-0.227-3.76-0.681c-1.174-0.452-2.199-1.065-3.08-1.84c-0.88-0.772-1.588-1.68-2.119-2.72
		c-0.534-1.04-0.801-2.146-0.801-3.32c0-1.172,0.267-2.279,0.801-3.319c0.531-1.04,1.239-1.946,2.119-2.721
		c0.881-0.772,1.906-1.386,3.08-1.84C572.162,58.835,573.415,58.608,574.749,58.608z M566.429,105.728l12-4.88h4.961v87.68h-16.961
		V105.728z"/>
	<path fill="#FFFFFF" d="M604.19,102.608h16.96v16.24c1.652-2.4,3.439-4.692,5.359-6.88c1.921-2.187,3.921-4.106,6-5.761
		c2.08-1.652,4.227-2.96,6.44-3.92c2.213-0.96,4.466-1.439,6.761-1.439c1.865,0,3.6,0.279,5.199,0.84c1.6,0.56,3,1.308,4.2,2.24
		c1.2,0.934,2.146,2.027,2.84,3.279c0.692,1.254,1.04,2.574,1.04,3.96c0,2.774-0.867,4.868-2.6,6.28
		c-1.734,1.414-4.147,2.12-7.24,2.12c-1.92,0-3.453-0.2-4.6-0.6c-1.148-0.4-2.188-0.853-3.12-1.36
		c-0.935-0.506-1.88-0.96-2.841-1.36c-0.959-0.399-2.159-0.6-3.6-0.6c-1.119,0-2.254,0.334-3.4,1c-1.146,0.667-2.293,1.6-3.439,2.8
		c-1.147,1.2-2.308,2.614-3.48,4.24c-1.174,1.627-2.348,3.399-3.52,5.32v59.52h-16.96V102.608z"/>
	<path fill="#FFFFFF" d="M730.749,180.127c-1.974,1.601-4.107,3.028-6.399,4.28c-2.294,1.254-4.681,2.32-7.16,3.2
		c-2.48,0.88-4.987,1.56-7.521,2.04c-2.533,0.479-5,0.72-7.399,0.72c-5.067,0-9.8-1.174-14.2-3.52
		c-4.4-2.347-8.24-5.521-11.52-9.521c-3.281-4-5.868-8.64-7.761-13.92c-1.894-5.28-2.84-10.853-2.84-16.72
		c0-3.893,0.546-7.732,1.64-11.521c1.093-3.786,2.613-7.372,4.561-10.76c1.946-3.386,4.293-6.52,7.04-9.399
		c2.746-2.881,5.8-5.373,9.159-7.48c3.36-2.106,6.947-3.746,10.761-4.92c3.812-1.173,7.8-1.76,11.96-1.76s7.812,0.733,10.96,2.199
		c3.146,1.468,6.053,3.4,8.72,5.801v-45.36l11.92-4.88h5.04v131.76h-16.96V180.127z M730.749,129.888c0-3.36-0.627-6.44-1.88-9.24
		c-1.254-2.8-2.894-5.187-4.92-7.16c-2.027-1.973-4.32-3.506-6.88-4.6c-2.561-1.093-5.147-1.641-7.76-1.641
		c-3.414,0-6.601,0.854-9.561,2.561c-2.96,1.707-5.547,4.08-7.76,7.12c-2.214,3.04-3.96,6.68-5.24,10.92
		c-1.279,4.239-1.92,8.894-1.92,13.96c0,5.439,0.707,10.547,2.12,15.319c1.413,4.774,3.347,8.935,5.8,12.48
		c2.453,3.548,5.32,6.348,8.6,8.4c3.28,2.054,6.787,3.079,10.521,3.079c1.812,0,3.612-0.239,5.4-0.72
		c1.786-0.479,3.492-1.12,5.12-1.92c1.626-0.8,3.159-1.732,4.6-2.8c1.44-1.066,2.692-2.187,3.76-3.36V129.888z"/>
</g>
</svg>
